<?xml version="1.0" encoding="UTF-8" standalone="no"?>

<svg width="100%" height="100%" viewBox="0 0 485 153" version="1.1" xmlns="http://www.w3.org/2000/svg" xmlns:xlink="http://www.w3.org/1999/xlink" xml:space="preserve" xmlns:serif="http://www.serif.com/" style="fill-rule:evenodd;clip-rule:evenodd;stroke-linejoin:round;stroke-miterlimit:2;">
    <g transform="matrix(1,0,0,1,-9825.515619,-4788.04947)">
        <g transform="matrix(1,0,0,1,6506.626515,4477.276068)">
            <g transform="matrix(0.673872,0,0,0.673872,3140.157138,-26.595512)">
                <path d="M925.99,640.59C925.78,644.22 924.77,653.77 922.96,669.25C921.52,681.6 916.98,692.72 909.34,702.62C898.45,716.73 880.92,724.72 863.21,726.85C856.7,727.64 847.89,727.49 836.8,726.42C824.13,725.2 805.63,723.6 793.03,722.78C737.7,719.16 687.6,717.17 642.75,716.8C592.18,716.39 541.78,717.75 491.53,720.89C467,722.42 438.41,724.54 405.76,727.25C395.81,728.08 385.91,726.98 376.07,723.95C354.87,717.43 339.26,703.11 332.95,681.68C331.08,675.33 330.06,668.47 329.28,660.71C327.53,643.38 326.24,630.48 325.4,622.01C324.76,615.54 324.08,609.68 323.37,604.43C322.29,596.5 321.96,589.35 322.39,583C323.26,569.83 327.89,558.57 336.29,549.21C349.17,534.84 368.09,528.75 386.39,525.12C473.02,507.95 558.64,499.81 643.25,500.71C718.39,501.5 795.12,510.04 873.43,526.33C876.6,526.99 882.69,528.91 891.68,532.09C893.79,532.84 897.8,534.93 903.71,538.36C913.19,543.87 921.72,553.21 925.72,562.11C929.01,569.42 930.89,577.87 931.37,587.46C931.58,591.67 930.59,596.75 930.35,601.59C930.03,607.95 928.62,613.67 928.17,619.84C927.63,627.35 926.36,634.1 925.99,640.59ZM803.85,644.11C803.62,647.6 802.78,656 801.32,669.3C800.56,676.19 802.4,681.89 806.83,686.39C809.99,689.6 813.43,691.39 817.14,691.77C826.39,692.71 832.71,693.39 836.1,693.82C841.05,694.43 844.82,694.44 847.41,693.83C853.94,692.29 858.67,688.67 861.6,682.96C863.03,680.19 864.13,675.19 864.88,667.97C865.76,659.51 866.64,652.38 867.52,646.58C868.17,642.24 868.18,638.86 867.55,636.43C866.17,631.14 863.6,626.78 859.83,623.37C851.02,615.39 843.92,608.76 838.55,603.48C834.59,599.59 833.48,597.72 834.19,591.99C834.81,587 835.53,581.24 836.35,574.7C836.51,573.47 837.53,572.53 838.78,572.48C841.36,572.38 845.76,573.03 847.74,573.84C849.25,574.45 849.98,576.09 849.91,578.76C849.8,582.97 849.23,587.43 848.21,592.15C847.95,593.38 848.8,594.57 850.05,594.71L870.64,596.99C871.47,597.08 872.23,596.48 872.32,595.65L875.04,571.19C875.1,570.6 875.09,570 875,569.42C873.51,559.36 867.58,553.5 857.22,551.83C846.83,550.16 838.1,549.05 831.03,548.52C826.84,548.21 823.13,549.33 819.9,551.9C814.43,556.23 812.88,560.79 812.09,568.1C811.78,570.97 810.82,579.07 809.21,592.41C808.29,600.08 808.76,606.34 813.16,611.86C817.34,617.09 825.06,623.48 829.53,627.98C834.42,632.91 837.65,636.19 839.2,637.8C841.52,640.21 842.54,643.03 842.25,646.25C841.74,651.84 840.99,658.28 840,665.58C839.67,668.01 838.85,670.26 836.25,670.03C833.46,669.78 830.98,669.4 828.81,668.91C826.74,668.44 825.77,667.18 825.88,665.11C826.17,659.73 826.91,653.55 828.1,646.57C828.27,645.54 827.53,644.59 826.49,644.5L805.35,642.81C804.58,642.74 803.9,643.33 803.85,644.11ZM794.42,565.64C793.13,568.27 791.52,570.66 789.61,572.81C788.5,574.08 787.64,577.22 789.9,577.8C792.03,578.35 793.69,578.31 794.86,577.66C797.32,576.31 799.6,573.94 801.7,570.57C802.87,568.69 803.67,565.54 804.09,561.12C804.77,553.88 805.16,549.56 805.26,548.17C805.36,546.94 804.47,545.85 803.25,545.69C799.63,545.22 796.05,544.85 792.52,544.57C790.6,544.42 789.57,545.03 789.42,546.4C788.41,555.73 787.88,560.8 787.84,561.59C787.78,562.59 788.48,563.47 789.47,563.64L793.77,564.37C794.36,564.47 794.68,565.1 794.42,565.64ZM421.4,665.88C420.79,661.84 420.41,658.55 420.26,656C418.85,631.39 417.17,606.72 415.22,582C414.89,577.86 414.43,573.47 419.7,572.91C421.99,572.66 424.85,572.37 428.28,572.04C432.31,571.64 432.66,576.52 432.78,579.02C433.11,585.89 433.39,590.69 433.64,593.42C433.74,594.57 434.77,595.42 435.92,595.32L457.35,593.37C457.75,593.33 458.11,593.09 458.28,592.72C458.66,591.95 458.82,590.73 458.77,589.04C458.5,580.39 458.16,573.21 457.76,567.5C457.09,557.89 453.39,550.65 443.75,547.8C441.07,547.01 436.2,547.16 429.14,548.25C425.2,548.86 420.12,549.49 413.9,550.15C401.58,551.44 392.1,555.45 388.79,568.32C388.27,570.35 388.25,574.56 388.72,580.94C391.09,612.77 393.29,640.38 395.3,663.77C395.77,669.29 395.86,674.55 397.09,678.95C399.69,688.2 408.08,695.12 418.28,694.19C422.89,693.77 431.44,693.03 443.91,691.98C447.58,691.67 450.37,691.02 452.3,690.03C458.22,687.01 461.94,682.47 463.46,676.4C464.08,673.92 464.12,670.01 463.59,664.66C462.8,656.72 462.38,649.89 462.35,644.18C462.34,641.95 461.22,641.48 459.25,641.74C452.08,642.69 445.38,643.26 439.13,643.45C438.06,643.48 437.25,644.43 437.39,645.48C437.82,648.89 438.2,654.81 438.51,663.23C438.61,666.08 437.66,668.22 434.88,668.66C431.95,669.12 428.6,669.38 424.85,669.43C422.92,669.45 421.66,667.6 421.4,665.88ZM573.7,683.48C573.53,684.45 574.28,685.34 575.26,685.34L598.09,685.34C598.86,685.34 599.53,684.78 599.66,684.02L603.63,660.65C603.76,659.89 604.43,659.33 605.2,659.33L625.94,659.33C626.71,659.33 627.37,659.89 627.5,660.66L631.43,683.95C631.56,684.72 632.22,685.28 632.99,685.28L656.16,685.28C657.14,685.28 657.89,684.4 657.73,683.43L633.09,536.87C632.96,536.1 632.3,535.54 631.52,535.54L600.24,535.54C599.47,535.54 598.8,536.1 598.67,536.86L573.7,683.48ZM615.5,580.45C615.64,580.44 615.74,580.62 615.81,580.97C617.46,589.95 618.82,598.82 619.88,607.58C620.76,614.9 622.55,624.04 623.79,633.17C623.88,633.83 623.41,634.43 622.75,634.5C621.59,634.63 619.23,634.7 615.69,634.71C612.15,634.73 609.8,634.67 608.63,634.55C607.98,634.48 607.5,633.89 607.59,633.23C608.76,624.09 610.49,614.94 611.31,607.61C612.31,598.84 613.61,589.96 615.2,580.97C615.26,580.62 615.36,580.45 615.5,580.45ZM748.14,618.03L744.59,686.02C744.53,687.08 745.35,687.98 746.42,688.04L768.11,689.17C769.32,689.24 770.35,688.3 770.41,687.09C772.52,644.26 774.62,603.32 776.69,564.25C777.15,555.52 777.53,549.43 777.84,546C777.95,544.87 777.78,543.87 777.35,543C777.24,542.78 777.03,542.64 776.79,542.62L751.28,540.57C750.3,540.49 749.4,541.1 749.1,542.03L726.19,613.4C726.04,613.87 725.37,613.85 725.25,613.37L706.72,538.34C706.53,537.57 705.84,537.02 705.05,537.01L678.86,536.5C678.16,536.49 677.58,537.04 677.57,537.74L674.75,683.99C674.73,684.9 675.46,685.65 676.37,685.67L698.75,686.1C699.72,686.12 700.52,685.34 700.54,684.37L701.83,617.64C701.84,617.36 702.04,617.13 702.32,617.1C702.59,617.07 702.85,617.24 702.92,617.51L719.92,682C720.09,682.64 720.66,683.1 721.33,683.11L724.91,683.18C725.27,683.19 725.6,682.95 725.71,682.61L747.39,617.88C747.45,617.7 747.64,617.59 747.83,617.63C748.02,617.67 748.15,617.84 748.14,618.03ZM551.95,539.07C551.93,538.14 551.14,537.41 550.21,537.45L525.99,538.61C525.09,538.66 524.39,539.41 524.41,540.31L525.76,598.63C525.78,599.53 525.08,600.28 524.18,600.33L508.03,601.11C507.11,601.15 506.33,600.45 506.29,599.53L503.54,542.06C503.5,541.12 502.68,540.4 501.73,540.49L477.8,542.67C476.92,542.75 476.25,543.51 476.3,544.4L483.17,687.78C483.21,688.7 483.99,689.4 484.91,689.36L508.1,688.24C509.02,688.2 509.72,687.42 509.68,686.5L506.9,628.44C506.86,627.52 507.56,626.74 508.48,626.7L525.58,625.88C526.51,625.84 527.3,626.57 527.32,627.5L528.68,685.65C528.7,686.58 529.49,687.31 530.42,687.27L553.75,686.15C554.65,686.1 555.35,685.35 555.33,684.45L551.95,539.07ZM306.153,643.893C305.981,644.115 306.186,644.424 306.453,644.333C306.453,644.333 320.762,641.686 320.904,642.569L322.19,650.203C322.271,650.705 322.068,651.213 321.665,651.511C317.192,654.814 314.237,656.858 310.928,660.347C305.47,666.102 300.948,671.191 297.364,675.627C293.182,680.807 289.142,685.482 283.508,681.341C282.3,680.451 280.983,678.615 279.557,675.831C276.717,670.252 274.232,664.217 272.101,657.701C268.776,647.558 269.02,640.026 274.888,632.326C275.323,631.754 275.26,630.953 274.734,630.466C268.247,624.398 265.081,616.597 265.237,607.065C265.353,599.269 271.316,583.637 281.69,592.037C284.808,594.565 288.153,597.339 291.698,600.348C298.907,606.482 306.262,609.61 315.291,613.388C315.877,613.636 316.282,614.18 316.347,614.808L316.015,621.342C316.036,621.49 304.097,625.386 304.097,625.386C303.936,625.396 303.822,625.552 303.869,625.71L303.976,626.025C304.038,626.232 304.222,626.394 304.435,626.43C304.435,626.43 318.677,629.608 318.779,630.245C318.779,630.245 319.409,636.126 318.912,636.293C315.638,637.391 308.48,640.936 306.153,643.893ZM946.101,639.164L946.242,638.814C946.271,638.735 946.232,638.628 946.153,638.588L933.246,632.186C932.9,631.999 934.394,624.671 934.962,624.676C939.068,624.666 944.181,624.043 948.002,622.655C948.252,622.568 948.399,622.3 948.347,622.042C948.296,621.783 948.066,621.593 947.799,621.597L935.658,619.437C935.089,619.443 937.089,611.849 937.089,611.849C937.236,610.931 937.892,610.177 938.781,609.916C950.12,606.533 960.758,598.971 969.153,591.158C973.226,587.376 977.016,587.563 980.514,591.731C983.069,594.789 984.441,598.83 984.629,603.865C984.946,612.644 982.167,620.253 976.272,626.678C975.719,627.277 975.667,628.178 976.13,628.848C980.92,635.718 980.942,642.435 978.514,650.672C976.756,656.648 974.266,662.815 971.055,669.175C970.311,670.665 969.603,671.821 968.94,672.656C966.34,675.962 961.946,676.265 958.848,673.494C953.569,668.782 948.364,660.735 943.102,655.78C939.622,652.506 935.949,649.358 932.092,646.336C931.565,645.915 931.311,645.248 931.427,644.595L932.79,638.614C932.945,637.744 945.372,639.472 945.372,639.472C945.654,639.584 945.988,639.446 946.101,639.164Z" style="fill:rgb(190,79,39);"></path>
            </g>
        </g>
    </g>
</svg>