<?xml version="1.0" encoding="UTF-8" standalone="no"?>
<!DOCTYPE svg PUBLIC "-//W3C//DTD SVG 1.1//EN" "http://www.w3.org/Graphics/SVG/1.1/DTD/svg11.dtd">
<svg width="100%" height="100%" viewBox="0 0 609 189" version="1.1" xmlns="http://www.w3.org/2000/svg" xmlns:xlink="http://www.w3.org/1999/xlink" xml:space="preserve" xmlns:serif="http://www.serif.com/" style="fill-rule:evenodd;clip-rule:evenodd;">
    <g transform="matrix(1,0,0,1,-194.37816,-348.243543)">
        <g>
            <g transform="matrix(0.277424,0,0,0.277424,112.809842,304.441301)">
                <path d="M949.78,446.29C950.23,445.15 950.37,443.72 950.2,442.01C949.34,433.5 948.09,426.29 946.44,420.39C943.2,408.77 942.06,397.09 939.29,386.22C937.54,379.36 934.82,371 931.13,361.13C927.5,351.44 923.46,342.42 918.99,334.08C915.71,327.95 911.67,320.77 906.88,312.54C903.19,306.21 898.82,299.26 893.76,291.7C891.47,288.27 888.89,285.88 886.88,282.77C885.83,281.16 884.12,278.94 881.73,276.11C877.9,271.57 873.45,266.08 869.46,262.24C864.86,257.81 859.75,251.25 854.04,246.19C847.13,240.07 841.77,235.64 834.43,230.41C829.87,227.17 821.72,223.03 816.63,218.86C814.28,216.93 811.09,214.79 807.07,212.42C797.7,206.9 787.98,202.28 777.93,198.57C777.18,198.29 772.76,196.75 764.68,193.94C763.45,193.51 762.44,193.35 760.94,193.04C759.39,192.71 757.87,192.25 756.41,191.64C751.15,189.48 746.7,187.92 743.07,186.97C737.98,185.63 735.1,183.06 729.45,181.41C728.86,181.24 727.75,180.99 726.1,180.68C725.18,180.51 724.29,180.21 723.47,179.78L720.08,178.02C719.5,177.72 718.87,177.5 718.21,177.39C716.34,177.06 713.39,176.18 709.34,174.73C704,172.83 697.52,171.44 689.89,170.48C681.48,169.42 676.57,168.85 669.29,166.82C663.59,165.23 658.82,164.17 654.97,163.64C637.4,161.23 619.63,161.75 601.64,163.55C596.27,164.09 592.17,164.67 589.36,165.28C582.62,166.77 576.26,168.31 568.93,169.41C558.28,171.02 549.44,172.88 542.41,174.99C531.99,178.12 524.59,180.53 520.2,182.23C512.23,185.32 506.5,187.48 503.03,188.7C499.62,189.9 493.96,192.21 486.05,195.63C479.33,198.52 472.92,200.94 466.82,202.89C459.73,205.15 452.53,208.5 445.21,212.94C437.81,217.43 433.51,220.06 432.31,220.83C427.68,223.8 421.27,228.4 413.08,234.65C406.04,240.02 400.6,244.72 396.76,248.76C391.86,253.91 387.12,259.34 382.55,265.05C381.77,266.02 378.72,270.11 373.4,277.3C371.72,279.57 368.92,281.89 367.41,284.67C365.96,287.34 364.45,289.69 362.86,291.72C360.63,294.57 358.99,296.84 357.92,298.52C348.94,312.64 343.92,322.09 334.21,340.42C334.1,340.62 332.02,344.42 327.95,351.82C319.58,367.04 314.23,383.03 311.91,399.78C311.18,405.06 310.66,408.25 310.35,409.34C309.7,411.6 309.94,413.73 309.17,416.01C307.56,420.76 306.93,425.65 305.73,431.23C304.97,434.76 303.45,443.43 305.68,445.97C305.91,446.23 306.24,446.38 306.59,446.37C315.77,446.3 322.99,445.98 328.24,445.4C332.15,444.98 337.08,445.68 340.26,445.3C350.39,444.07 360,443.88 369.07,444.71C373.76,445.15 378.86,445.12 382.74,444.97C385.61,444.87 389.08,444.2 389.12,440.76C389.16,437.53 388.96,433.77 388.51,429.5C387.77,422.37 387.45,414.72 387.73,408.17C387.9,404 387.9,400.73 387.73,398.36C387.17,390.95 387.99,381.57 387.54,373.09C387.23,367.13 387.14,359 387.28,348.71C387.33,344.61 387.79,340.84 388.64,337.41C390.03,331.77 391.03,328.11 391.66,326.42C392.67,323.71 393.88,322.06 395.29,321.47C411.34,314.72 421.29,310.45 425.14,308.64C425.24,308.59 429.32,306.6 437.39,302.67C440.89,300.96 445.86,299.29 452.31,297.64C454.02,297.2 455.65,297.18 457.19,297.57C461.7,298.72 465.06,299.65 467.29,300.36C468.44,300.73 469.86,301 471.55,301.18C474.48,301.49 477.02,302.54 480.22,303.4C484.38,304.53 488.45,305.27 493.45,306.86C495.82,307.61 498.57,308.27 501.71,308.86C510.14,310.44 516.38,311.35 524.11,313.61C527.38,314.57 530.91,315.5 534.69,316.41C544.52,318.78 556.16,322.21 568.76,325.4C573.37,326.57 576.3,327.4 577.57,327.91C579.63,328.75 583.19,328.91 585.74,329.92C590.73,331.9 595.03,333.2 598.65,333.83C600.27,334.12 602.39,334.73 605.01,335.67C605.02,335.68 607.12,336.33 611.33,337.62C616.26,339.15 622.41,341.9 628.24,343.26C630.41,343.77 632.93,344.46 635.82,345.34C652.27,350.33 661.22,353.08 662.67,353.58C665.53,354.55 669.55,355.63 674.73,356.82C676.55,357.24 680.58,358.31 686.82,360.04C688.19,360.42 690.79,361.02 694.62,361.84C696.62,362.27 699.22,362.91 702.41,363.78C711.14,366.15 720.66,369.07 730.99,372.55C735.09,373.94 739.64,375.79 744.63,378.11C746.12,378.8 751.63,381.01 761.17,384.74C766.19,386.7 770.93,388.3 775.38,389.53C784.16,391.94 788.98,393.24 789.83,393.41C794.16,394.26 796.9,395.36 800.59,396.32C808.64,398.41 816.93,400.73 825.46,403.29C828.64,404.24 832.32,406.05 835.87,407.13C850.5,411.58 858.98,414.36 870.3,419.2C876.51,421.87 880.95,423.69 883.61,424.66C888.72,426.53 892.24,427.89 894.15,428.72C900.55,431.5 905.56,432.75 912.54,435.52C916.19,436.97 920.84,438.49 926.49,440.08C933.42,442.02 940.73,444.3 948.44,446.92C948.98,447.1 949.57,446.83 949.78,446.29" style="fill:none;fill-rule:nonzero;stroke:rgb(198,215,224);stroke-width:2px;"/>
                <path d="M303.59,537.48L302.34,538.92C302.13,539.16 301.99,539.46 301.95,539.78C301.74,541.37 301.69,543.27 301.82,545.5C302.15,551.25 302.52,555.18 302.92,557.31C303.97,562.91 304.94,567.58 305.84,571.32C306.74,575.02 306.66,578.59 307.63,582.19C308.8,586.54 309.41,588.83 309.45,589.05C310.95,596.28 313.7,603.01 315.9,610.52C317.15,614.79 318.9,619.55 321.16,624.81C324.53,632.68 327.33,639.04 329.56,643.91C331.89,649.01 336.28,656.25 338.32,659.67C339.2,661.16 341.09,664.57 344,669.9C347.89,677.03 352.51,684.01 357.85,690.86C359.17,692.55 360.45,694.69 361.6,696.14C370.9,707.9 379.13,717.87 386.29,726.05C390.92,731.34 395.55,736.16 400.18,740.49C405.81,745.76 410.83,750.18 415.23,753.75C421.07,758.48 427.98,763.46 435.97,768.67C438.16,770.1 441.32,771.22 442.83,772.42C446.57,775.39 450.23,777.84 453.81,779.77C457.32,781.65 460.12,784.03 463.55,785.92C474.69,792.07 482.22,796.21 486.13,798.36C498.24,805.02 509.38,810.05 521.64,814.6C524.9,815.81 527.6,816.66 529.75,817.16C532.87,817.88 535.59,818.64 537.91,819.44C546.54,822.4 556.31,824.75 567.23,826.48C574.65,827.65 580.49,828.59 584.76,829.29C592.12,830.5 597.97,831.31 602.32,831.71C617.94,833.16 633.28,833.88 648.09,832.43C650.34,832.21 653.27,831.99 656.9,831.77C670.2,830.95 684.42,828.92 699.55,825.69C712.27,822.97 723.6,819.74 733.53,816.01C735.56,815.24 737.15,814.55 738.3,813.93C738.57,813.78 738.69,813.53 738.64,813.18C738.63,813.11 738.59,813.03 738.52,812.92C738.48,812.87 738.43,812.83 738.37,812.81C727.1,809.84 720.5,808.05 718.56,807.44C710.61,804.89 701.6,802.33 692.27,799.55C691.06,799.19 689.92,798.77 688.83,798.28C682.74,795.54 678.97,793.9 677.54,793.36C673.89,791.98 671.46,790.11 668.15,788.78C663.14,786.77 655.64,782.21 652.59,780.42C647.05,777.17 641.88,773.55 637.07,769.54C634.06,767.04 632.81,764.85 630.24,761.98C625.18,756.32 623.52,749.04 623.99,741.48C624.24,737.63 626.78,731.48 625.86,727.44C625.03,723.86 623.89,721.26 622.44,719.64C615.15,711.5 604.84,706.49 594.47,702.93C590.23,701.47 585.92,699.37 581.02,698.24C568.5,695.36 557.83,692.7 549,690.26C545.61,689.32 541.37,688.1 537.62,686.48C530.72,683.49 523.35,681.1 516.86,676.9C509.62,672.23 502.95,667.23 496.85,661.92C492.89,658.47 489.1,653.6 485.49,647.33C485.17,646.76 484.94,646.14 484.82,645.5C483.86,640.25 483.4,637.17 483.45,636.27C483.63,632.98 484.88,629.05 487.2,624.46C488.49,621.93 491.77,619.05 494.58,615.8C497.17,612.81 501.32,609.53 504.81,607.33C507.2,605.82 511.78,603.41 518.57,600.12C530.54,594.31 543.14,589.98 556.37,587.15C558.47,586.7 564.8,585.67 575.37,584.08C582.76,582.96 590,581.24 597.11,578.91C598.39,578.49 599.75,577.63 601.19,576.32C601.45,576.08 601.58,575.73 601.54,575.38C601.42,574.25 600.84,573.53 599.79,573.2C595.96,572.01 590.7,571.14 584,570.59C583.42,570.54 582.82,570.56 582.24,570.66C580.56,570.93 578.6,571.12 576.37,571.23C566.88,571.72 557.11,571.91 547.04,571.8" style="fill:none;fill-rule:nonzero;stroke:rgb(239,225,202);stroke-width:2px;"/>
                <path d="M547.04,571.8C555.63,567.99 563.79,565.45 571.5,564.2C577.45,563.23 583.88,562.61 590.77,562.36C601.7,561.95 607.84,561.66 609.19,561.47C612.56,561 616.91,560.38 622.24,559.61C625.09,559.2 629.35,558.21 635.02,556.63C651.46,552.06 668.49,549.51 686.22,549.9C691.8,550.03 696.85,549.22 701.3,549.05C704.58,548.92 708.33,548.48 712.56,547.71C722.02,546 727.97,544.87 730.42,544.3C732.67,543.77 734.86,543.37 737,543.09C743.02,542.29 747.94,540.86 753.52,540.69C755.97,540.61 760.57,540.23 767.34,539.55C770.39,539.24 775,539.01 781.17,538.86C791.14,538.62 802.28,537.75 814.59,536.24C817,535.95 821.75,534.99 828.85,533.36C842.3,530.29 853.36,530.47 870.02,530.34C871.45,530.33 872.93,530.22 874.46,530.01C878.28,529.48 881.64,529.48 885.59,528.87C891.22,528 898.32,526.99 906.89,525.83C910.61,525.33 914.19,525.12 917.64,525.2C921.87,525.29 926.28,524.93 930.87,524.11C936.81,523.05 944.31,522.55 948.25,522.22C949.48,522.11 950.76,521.8 952.09,521.28C952.4,521.15 952.63,520.9 952.72,520.58C953.49,517.93 953.98,515.41 954.21,513C954.95,505.19 955.36,496.84 955.45,487.95C955.48,484.38 955.21,480.27 954.64,475.6C954.24,472.33 953.89,468.21 953.6,463.24C953.58,462.9 952.94,460.41 951.69,455.76C951.56,455.28 951.25,454.86 950.81,454.6C949.54,453.85 948.23,453.29 946.88,452.93C940.53,451.21 935.02,449.5 930.35,447.81C922.01,444.79 913.81,441.96 904.02,438.79C900.19,437.54 895.68,435.94 890.51,433.98C874.2,427.79 857.04,422.24 839.03,417.33C833.42,415.8 825.89,412.74 821.92,411.58C817.78,410.37 804.3,406.27 781.49,399.26C768.56,395.29 761.99,393.25 750.38,388.72C742.8,385.77 734.81,383.06 726.41,380.59C715.54,377.4 704.76,374.27 694.07,371.18C692.57,370.75 685.95,369.13 674.22,366.33C672.47,365.91 669.23,364.82 664.52,363.05C659.79,361.28 654.33,360.59 649.98,358.8C647.07,357.6 643.65,357.07 640.04,355.94C630.48,352.95 619.73,349.58 607.8,345.84C598.28,342.85 584.49,339.39 573.57,335.65C569.54,334.27 567.2,333.48 566.53,333.27C559.55,331.07 554.24,329.17 545.74,327.01C541.45,325.92 533.56,323.57 522.08,319.98C521.62,319.83 520.7,319.73 519.31,319.66C518.77,319.63 518.23,319.53 517.71,319.37C512.95,317.88 509.69,316.69 504.37,315.46C494.81,313.26 484.23,310.67 472.64,307.69C469.9,306.99 467.67,307.02 467.93,310.52C468.1,312.91 468.11,315.23 467.96,317.5C467.57,323.25 467.77,330.72 467.66,333.92C467.57,336.59 467.65,339.73 467.88,343.36C468.44,351.91 468.67,361.24 467.55,370.04C467.12,373.42 467.24,376.2 467.89,378.37C468.16,379.27 468.17,380.23 467.92,381.14C467.7,381.93 467.42,383.79 467.07,386.74C466.88,388.31 467.09,390.49 467.7,393.26C468.33,396.13 468.34,399.62 467.74,403.73C467.69,404.06 467.68,404.4 467.71,404.73C467.78,405.38 467.96,407.78 468.25,411.91C468.62,417.23 467.6,423.27 468.22,427.97C468.42,429.53 468.38,431.04 468.09,432.51C467.98,433.08 467.81,434.6 467.6,437.07C467.44,438.95 467.53,441.23 467.87,443.91C468.69,450.28 467.38,457.18 467.59,463.13C468.02,475.08 467.13,487.18 467.61,500.51C467.78,505.24 467.77,510.62 467.59,516.65C467.51,519.29 468.09,522.51 467.89,524.75C467.7,526.77 467.66,528.78 467.76,530.77C468.45,544.35 468.43,557.85 467.71,571.26C467.7,571.49 467.55,573.06 467.26,575.96C466.89,579.6 467.37,582.84 468.7,585.67" style="fill:none;fill-rule:nonzero;stroke:rgb(143,149,154);stroke-width:2px;"/>
                <path d="M468.7,585.67C466.75,587.12 465.42,587.45 464.7,586.65" style="fill:none;fill-rule:nonzero;stroke:rgb(239,225,202);stroke-width:2px;"/>
                <path d="M464.7,586.65C465.9,585.74 466.48,584.52 466.45,582.98C466.24,573.07 465.99,565.91 465.7,561.5C465.63,560.31 465.73,555.15 466.02,546.04C466.03,545.66 466.01,545.28 465.96,544.91C465.62,542.35 465.63,540.12 465.98,538.21C466.05,537.85 466.05,537.47 466,537.1C465.61,534.17 466.33,530.78 466.37,527.43C466.48,516.66 466.5,508.21 466.41,502.06C466.35,497.55 465.84,494.26 465.99,490.38C466.06,488.39 466.01,485.48 465.84,481.63C465.29,469.43 465.08,462.47 465.19,460.75C466.04,448.3 466.43,439.39 466.34,434C466.17,423.3 466.12,411.72 466.2,399.25C466.22,395.65 465.73,391.71 465.7,388.24C465.61,379.19 465.79,370.54 466.23,362.31C466.62,354.82 466.73,347.78 466.55,341.19C466.18,328.36 466.18,317.53 466.54,308.7C466.6,307.3 465.62,306.07 464.24,305.82C461.68,305.36 459.17,305.19 456.36,306.01C452.27,307.19 448.58,308.32 445.31,309.4C443.35,310.05 441.81,311.33 439.61,312.03C430.48,314.94 422.98,317.41 417.09,319.44C416.22,319.73 414.85,320.23 412.98,320.94C406.39,323.41 399.41,324.56 395.38,326.59C393.23,327.67 392.09,329.15 391.95,331.03C391.32,339.44 391.11,351.26 391.32,366.51C391.34,367.82 391.13,370.23 390.7,373.74C390.51,375.26 390.73,377.6 391.34,380.75C391.45,381.28 391.5,381.81 391.51,382.35C391.54,385.69 390.94,389.12 391.34,392.52C391.71,395.64 391.15,400.09 391.23,404.15C391.4,412.06 391.57,421.21 390.98,429.92C390.7,433.95 390.77,437.02 391.2,439.12C391.31,439.64 391.3,440.18 391.19,440.71C390.64,443.27 390.74,446.01 391.47,448.94C391.62,449.54 391.28,450.54 390.46,451.94C390.31,452.21 390.01,452.35 389.7,452.31C386.11,451.8 383.62,451.66 382.23,451.88C375.01,453.02 366.18,453.23 355.74,452.52C353.76,452.39 348.77,452.32 340.77,452.31C336.86,452.31 332.94,451.4 329.73,451.38C322.08,451.33 314.32,451.42 306.43,451.63C305.34,451.65 304.34,452.24 303.79,453.17C302.62,455.13 301.81,457.52 301.51,460.06C301.2,462.68 300.64,466.91 299.82,472.74C299.33,476.25 299.26,480.64 299.63,485.93C299.79,488.27 299.58,490.76 298.79,493.3C298.14,495.37 297.98,497.77 298.31,500.49C298.48,501.88 298.75,505.18 299.13,510.39C299.62,517.15 300.27,523.88 301.07,530.59C301.25,532.06 301.49,533.53 301.78,535C301.96,535.93 302.56,536.75 303.59,537.48" style="fill:none;fill-rule:nonzero;stroke:rgb(143,149,154);stroke-width:2px;"/>
                <path d="M464.7,586.65C462.59,587.16 461.02,587.12 459.97,586.55C457.32,585.1 454.49,583.75 451.49,582.5C450.57,582.12 449.68,581.68 448.82,581.17C444.11,578.39 439.99,576.32 436.48,574.95C436.21,574.85 434.76,574.2 432.11,573C425.52,570.03 419.04,567 412.65,563.92C404.73,560.1 396.16,556.76 389.95,553.65C389.04,553.18 388.08,552.81 387.1,552.54L374.06,548.86C374,548.85 373.94,548.83 373.89,548.82L340.49,542.38C340.27,542.34 340.05,542.32 339.83,542.31C335.16,542.16 331.01,541.53 327.36,540.43C326.44,540.16 325.49,540.02 324.53,540.02C322.45,540.03 320.38,539.8 318.33,539.34C316.18,538.85 313.73,538.5 310.98,538.27C308.45,538.06 305.99,537.79 303.59,537.48" style="fill:none;fill-rule:nonzero;stroke:rgb(126,120,103);stroke-width:2px;"/>
                <path d="M547.04,571.8C538.95,573.83 530.38,575.52 521.33,576.89C518.46,577.33 515.83,578.57 512.88,579.1C494.67,582.37 481.97,584.71 474.8,586.13C472.7,586.54 470.67,586.39 468.7,585.67" style="fill:none;fill-rule:nonzero;stroke:rgb(126,120,103);stroke-width:2px;"/>
                <path d="M828.41,765.43C828.54,765.06 828.34,764.65 827.96,764.54C826.23,764.01 824.7,763.37 823.37,762.64C818.46,759.94 813.54,756.82 808.61,753.27C807.72,752.63 806.77,752.07 805.78,751.6C796.54,747.19 785.27,743.73 771.98,741.24C767.49,740.4 762.29,738.85 756.36,736.58C753.7,735.56 751.53,734.54 749.86,733.51C745.01,730.53 740.37,728.4 736.12,724.79C730.48,719.99 724.88,715.6 726.04,707.9C726.52,704.7 726.73,702.9 726.67,702.51C725.7,695.63 721.68,692.43 716.18,688.44C713.75,686.67 710.74,684.99 707.16,683.39C701.2,680.72 695.08,678.34 688.81,676.26C684.18,674.73 677.78,673.31 669.62,672.02C662.27,670.85 655.37,669.63 648.93,668.35C640.85,666.74 631.82,663.47 621.85,658.53C619.39,657.32 616.23,652.61 612.46,650.69C606.28,647.55 599.82,640.81 602.3,633.37C604.59,626.5 609.81,623.08 615.91,619.34C616.31,619.09 616.73,618.89 617.18,618.73C621.24,617.3 624.29,615.53 627.95,614.49C629.54,614.04 635.11,612.13 644.66,608.76C651.92,606.19 660.95,604.24 671.74,602.91C675.83,602.4 684.34,602.01 697.25,601.74C709.78,601.47 722.55,599.76 735.56,596.6C739.15,595.73 743.64,593.54 749.03,590.03C749.77,589.55 750.42,588.95 750.97,588.25C757.7,579.65 767.53,575.74 778.05,573.39C782.84,572.32 787.19,571.67 791.1,571.44C794.63,571.23 799.02,570.85 804.27,570.29C809.96,569.69 815.66,568.26 821.39,566.01C821.85,565.83 822.27,565.57 822.63,565.25C828.51,560.04 836.43,557.79 844.48,555.88C852.65,553.93 862.84,555.22 870.21,554.79C876.36,554.43 882.6,553.24 888.94,551.23C889.34,551.11 889.72,550.94 890.07,550.71C895.8,547.11 899.4,545.08 900.89,544.62C903.8,543.71 907.26,542.95 911.29,542.36C919.97,541.08 928.99,543.07 937.31,539.77C943.04,537.51 946.37,537.14 951.98,537.68C952.6,537.74 953.16,537.3 953.26,536.69C953.55,535.02 953.46,533.67 953.01,532.66C952.86,532.34 952.59,532.11 952.25,532.01C950.23,531.45 948.97,531.21 948.47,531.28C945.01,531.81 941.79,531.66 938.8,530.83C938.38,530.72 937.94,530.7 937.51,530.78L935.37,531.19C935.21,531.22 935.05,531.24 934.89,531.23C927.7,530.98 919.32,531.09 909.75,531.56C905.08,531.79 900.81,532.52 896.95,533.75C892.96,535.02 889.79,535.87 887.44,536.3C874.04,538.78 859.32,536.36 845.36,538.59C835.8,540.12 827.24,542.07 819.67,544.45C816.7,545.38 813.37,546.11 811.11,546.35C803.78,547.15 792.74,547.5 778.01,547.4C765.01,547.31 752.24,548.68 739.7,551.51C738.77,551.72 737.42,552.07 735.65,552.56C731.43,553.73 727.27,555.98 723.31,557.51C721.42,558.23 717.51,558.95 711.6,559.66C711.17,559.71 710.75,559.8 710.33,559.91L704.16,561.65C704.09,561.67 704.02,561.68 703.95,561.68C701.75,561.69 694.43,561.42 682,560.87C678.54,560.72 675.21,560.79 672,561.08C663.1,561.9 655.44,562.44 648.68,564.73C642.57,566.8 637.02,569.1 632.02,571.63C631.32,571.99 630.82,572.66 630.69,573.44C630.06,577.15 628.1,580.04 624.8,582.12C616.89,587.1 607.6,589.36 598.29,591.59C591.96,593.11 586.31,593.57 580.54,595.02C577.77,595.72 572.86,595.46 569.46,596.94C566.48,598.22 563.42,598.26 560.37,599.37C557.17,600.53 552.68,602.13 546.9,604.16C538.87,606.97 531.63,612.1 524.76,616.9C520.08,620.17 516.93,622.96 515.31,625.27C513.05,628.49 511.44,632.42 510.48,637.06C510.41,637.41 510.42,637.77 510.51,638.12L511.86,643.14C512.23,644.51 512.76,645.84 513.45,647.08C516.32,651.35 518.28,653.89 519.31,654.69C522.12,656.86 525.23,659.57 528.65,662.84C529.73,663.87 533,664.52 534.83,665.81C538.08,668.11 541.04,669.84 543.71,671C556.91,676.73 570.6,681.22 584.77,684.47C587.95,685.2 591.13,686.69 594.33,687.13C599.43,687.82 603.2,689.4 609.35,691.19C617.28,693.49 624.47,696.65 630.9,700.66C638.57,705.44 645.28,709.35 648.31,717.32C648.9,718.89 649.2,720.66 649.2,722.63C649.19,725.73 649.08,727.55 648.85,728.08C646.86,732.72 645.78,735.24 645.61,735.65C645.33,736.3 645.16,736.98 645.11,737.68C644.89,740.39 645.05,742.58 645.58,744.26C647.32,749.71 650.17,754.24 654.13,757.86C658.57,761.92 663.4,765.5 668.61,768.61C672.85,771.14 676.13,772.66 678.45,773.17C681.74,773.9 684.15,774.72 685.69,775.65C693.24,780.18 698.03,782.8 700.05,783.49C706.46,785.68 710.97,787.34 713.56,788.49C717.94,790.42 722.02,791.83 725.8,792.71C732.13,794.19 736.18,795.17 737.94,795.64C741.41,796.58 745.01,796.36 748.29,797.69C753.44,799.8 760.06,800.66 765.03,802.57C765.36,802.69 765.71,802.74 766.06,802.7C767.23,802.57 768.21,802.34 769.01,802.02C777.64,798.56 786.27,795.08 794.19,790.56C805.62,784.05 816.56,776.29 827.01,767.27C827.73,766.64 828.2,766.03 828.41,765.43" style="fill:none;fill-rule:nonzero;stroke:rgb(167,194,206);stroke-width:2px;"/>
                <path d="M892.84,695.62C892.74,695.59 889.42,694.77 882.88,693.17C879.97,692.46 876.74,691.4 873.17,689.99C865.87,687.1 860.97,685.38 858.48,684.82C852.33,683.44 848.24,682.7 846.19,682.6C831.36,681.88 816.42,679.93 802.68,674.81C798.26,673.16 794.16,670.69 790.38,667.41C789.96,667.05 789.62,666.6 789.4,666.09C786.9,660.5 780.18,656.48 774.94,653.08C767.42,648.2 770.45,639.34 776.72,635.19C781.25,632.19 784.57,630.29 786.68,629.48C797.19,625.44 807.91,623.02 819.98,621.88C827.35,621.19 834.12,619.13 843.17,616.93C845.43,616.38 848.63,614.84 852.78,612.32C854.91,611.03 856.06,609.33 857.37,607.63C860.18,603.98 863.64,601.3 867.75,599.57C873.24,597.27 879.35,595.3 886.08,593.67C891.61,592.33 895.84,591.69 898.79,591.76C907.95,591.97 918.34,591.45 927.34,588.32C931.51,586.87 935.13,585.55 938.21,584.38C939.33,583.95 940.55,583.83 941.73,584.04L945.26,584.67C945.7,584.74 946.14,584.55 946.38,584.18C946.7,583.67 947.04,582.67 947.4,581.18C949.61,571.87 951.25,562.93 952.32,554.35C952.83,550.24 952.93,546.24 952.61,542.34C952.58,541.96 952.24,541.69 951.86,541.73C950.03,541.96 948.37,542.36 946.89,542.91C941.52,544.92 937.26,546.39 934.13,547.34C928.58,549.02 923.82,549.04 918.65,548.71C912.76,548.34 906.4,550.63 901.06,553.29C900.57,553.54 899.5,554.62 897.84,556.55C897.59,556.84 897.29,557.1 896.96,557.31C886.58,563.87 873.85,564.08 862.01,563.28C852.36,562.64 842.1,564.52 833.87,569.29C833.33,569.61 832.83,569.98 832.36,570.41L828.29,574.17C828.09,574.35 827.87,574.5 827.63,574.63C822.75,577.16 816.64,579.67 811.14,579.84C808.47,579.92 805.24,580.88 802.22,581.1C800.32,581.24 798.87,581.3 797.87,581.29C789.13,581.16 780.74,582.82 772.7,586.25C768.26,588.14 762.4,590.51 761.4,595.37C761.29,595.88 761.05,596.36 760.71,596.75C758.88,598.86 757.03,600.42 755.15,601.43C742.41,608.29 728.01,611.37 713.47,613C707.66,613.65 702.5,613.91 698.01,613.78C682.66,613.34 668.59,614.63 653.04,618.56C651.13,619.05 646.85,620.29 640.2,622.29C633.87,624.19 614.62,632.42 624.07,641.74C628.42,646.03 631.56,647.32 638.69,651.17C639.63,651.68 642.39,652.68 646.97,654.19C651.27,655.6 654.08,656.5 655.4,656.89C658.49,657.81 665.65,659.28 676.88,661.3C681.86,662.2 685.93,663.4 690.52,664.05C694.74,664.65 697.71,665.96 701.22,666.85C703.13,667.33 705.76,668.23 709.09,669.56C716.37,672.45 720.79,674.22 722.36,674.89C729.57,677.98 735.64,682.74 740.56,689.18C744.42,694.23 743.02,698.78 742.24,704.51C741.38,710.83 747.17,714.28 751.71,717.39C756.66,720.78 761.67,723.23 766.74,724.72C776.61,727.62 783.83,729.65 788.42,730.8C793.59,732.09 797.95,733.4 801.5,734.73C812.19,738.72 820.74,741.72 827.82,749.32C828.19,749.71 828.59,750.06 829.04,750.35C832.21,752.4 835.72,754.02 839.59,755.2C840.1,755.36 840.65,755.24 841.06,754.9C852.64,745.03 863.46,734.54 873.51,723.43C880.88,715.29 887.89,705.39 893.3,696.93C893.61,696.45 893.38,695.81 892.84,695.62" style="fill:none;fill-rule:nonzero;stroke:rgb(167,194,206);stroke-width:2px;"/>
                <path d="M944.09,592.29C944.13,591.29 943.12,590.58 942.19,590.97C937.44,592.96 933.36,594.6 929.93,595.87C920.92,599.21 912,600.9 903.19,600.94C895.75,600.97 887.23,602.1 882.68,603.64C874.31,606.48 869.59,608.26 865.08,615.45C863.52,617.94 862.69,618.39 860.13,620.16C853.86,624.49 846.82,627.02 839,627.76C826.24,628.97 814.18,631.38 802.83,635C798.84,636.27 795.36,638.06 792.29,640.53C788.18,643.82 787.69,649.22 792.22,652.54C796.17,655.43 799.2,657.61 801.32,659.06C802.31,659.74 803.37,660.32 804.49,660.79C807.47,662.04 809.6,662.98 810.87,663.63C817.35,666.94 824.03,668.25 831.01,669.22C836.06,669.92 841.78,670.55 848.19,671.12C857.42,671.94 864.38,674.24 874.13,675.87C875.17,676.04 876.19,676.34 877.16,676.76C881.3,678.52 885.07,679.31 888.7,681.25C892.23,683.14 896.52,684.37 899.83,684.4C900.86,684.41 901.82,683.92 902.4,683.08C903.77,681.11 906.18,677.41 909.63,671.98C910.86,670.05 911.79,668.3 912.43,666.75C914.26,662.27 916.75,658.63 918.85,654.59C924.27,644.14 927.29,638.33 927.91,637.14C928.63,635.77 928.74,633.49 929.84,631.99C930.45,631.16 931.26,629.51 932.29,627.02C935.46,619.34 938.7,611.91 940.96,603.72C942.07,599.73 942.96,596.62 943.65,594.39C943.92,593.5 944.07,592.8 944.09,592.29" style="fill:none;fill-rule:nonzero;stroke:rgb(167,194,206);stroke-width:2px;"/>
                <path d="M464.7,586.65C462.59,587.16 461.02,587.12 459.97,586.55C457.32,585.1 454.49,583.75 451.49,582.5C450.57,582.12 449.68,581.68 448.82,581.17C444.11,578.39 439.99,576.32 436.48,574.95C436.21,574.85 434.76,574.2 432.11,573C425.52,570.03 419.04,567 412.65,563.92C404.73,560.1 396.16,556.76 389.95,553.65C389.04,553.18 388.08,552.81 387.1,552.54L374.06,548.86C374,548.85 373.94,548.83 373.89,548.82L340.49,542.38C340.27,542.34 340.05,542.32 339.83,542.31C335.16,542.16 331.01,541.53 327.36,540.43C326.44,540.16 325.49,540.02 324.53,540.02C322.45,540.03 320.38,539.8 318.33,539.34C316.18,538.85 313.73,538.5 310.98,538.27C308.45,538.06 305.99,537.79 303.59,537.48C302.56,536.75 301.96,535.93 301.78,535C301.49,533.53 301.25,532.06 301.07,530.59C300.27,523.88 299.62,517.15 299.13,510.39C298.75,505.18 298.48,501.88 298.31,500.49C297.98,497.77 298.14,495.37 298.79,493.3C299.58,490.76 299.79,488.27 299.63,485.93C299.26,480.64 299.33,476.25 299.82,472.74C300.64,466.91 301.2,462.68 301.51,460.06C301.81,457.52 302.62,455.13 303.79,453.17C304.34,452.24 305.34,451.65 306.43,451.63C314.32,451.42 322.08,451.33 329.73,451.38C332.94,451.4 336.86,452.31 340.77,452.31C348.77,452.32 353.76,452.39 355.74,452.52C366.18,453.23 375.01,453.02 382.23,451.88C383.62,451.66 386.11,451.8 389.7,452.31C390.01,452.35 390.31,452.21 390.46,451.94C391.28,450.54 391.62,449.54 391.47,448.94C390.74,446.01 390.64,443.27 391.19,440.71C391.3,440.18 391.31,439.64 391.2,439.12C390.77,437.02 390.7,433.95 390.98,429.92C391.57,421.21 391.4,412.06 391.23,404.15C391.15,400.09 391.71,395.64 391.34,392.52C390.94,389.12 391.54,385.69 391.51,382.35C391.5,381.81 391.45,381.28 391.34,380.75C390.73,377.6 390.51,375.26 390.7,373.74C391.13,370.23 391.34,367.82 391.32,366.51C391.11,351.26 391.32,339.44 391.95,331.03C392.09,329.15 393.23,327.67 395.38,326.59C399.41,324.56 406.39,323.41 412.98,320.94C414.85,320.23 416.22,319.73 417.09,319.44C422.98,317.41 430.48,314.94 439.61,312.03C441.81,311.33 443.35,310.05 445.31,309.4C448.58,308.32 452.27,307.19 456.36,306.01C459.17,305.19 461.68,305.36 464.24,305.82C465.62,306.07 466.6,307.3 466.54,308.7C466.18,317.53 466.18,328.36 466.55,341.19C466.73,347.78 466.62,354.82 466.23,362.31C465.79,370.54 465.61,379.19 465.7,388.24C465.73,391.71 466.22,395.65 466.2,399.25C466.12,411.72 466.17,423.3 466.34,434C466.43,439.39 466.04,448.3 465.19,460.75C465.08,462.47 465.29,469.43 465.84,481.63C466.01,485.48 466.06,488.39 465.99,490.38C465.84,494.26 466.35,497.55 466.41,502.06C466.5,508.21 466.48,516.66 466.37,527.43C466.33,530.78 465.61,534.17 466,537.1C466.05,537.47 466.05,537.85 465.98,538.21C465.63,540.12 465.62,542.35 465.96,544.91C466.01,545.28 466.03,545.66 466.02,546.04C465.73,555.15 465.63,560.31 465.7,561.5C465.99,565.91 466.24,573.07 466.45,582.98C466.48,584.52 465.9,585.74 464.7,586.65Z" style="fill:rgb(30,44,54);fill-rule:nonzero;"/>
                <path d="M547.04,571.8C538.95,573.83 530.38,575.52 521.33,576.89C518.46,577.33 515.83,578.57 512.88,579.1C494.67,582.37 481.97,584.71 474.8,586.13C472.7,586.54 470.67,586.39 468.7,585.67C467.37,582.84 466.89,579.6 467.26,575.96C467.55,573.06 467.7,571.49 467.71,571.26C468.43,557.85 468.45,544.35 467.76,530.77C467.66,528.78 467.7,526.77 467.89,524.75C468.09,522.51 467.51,519.29 467.59,516.65C467.77,510.62 467.78,505.24 467.61,500.51C467.13,487.18 468.02,475.08 467.59,463.13C467.38,457.18 468.69,450.28 467.87,443.91C467.53,441.23 467.44,438.95 467.6,437.07C467.81,434.6 467.98,433.08 468.09,432.51C468.38,431.04 468.42,429.53 468.22,427.97C467.6,423.27 468.62,417.23 468.25,411.91C467.96,407.78 467.78,405.38 467.71,404.73C467.68,404.4 467.69,404.06 467.74,403.73C468.34,399.62 468.33,396.13 467.7,393.26C467.09,390.49 466.88,388.31 467.07,386.74C467.42,383.79 467.7,381.93 467.92,381.14C468.17,380.23 468.16,379.27 467.89,378.37C467.24,376.2 467.12,373.42 467.55,370.04C468.67,361.24 468.44,351.91 467.88,343.36C467.65,339.73 467.57,336.59 467.66,333.92C467.77,330.72 467.57,323.25 467.96,317.5C468.11,315.23 468.1,312.91 467.93,310.52C467.67,307.02 469.9,306.99 472.64,307.69C484.23,310.67 494.81,313.26 504.37,315.46C509.69,316.69 512.95,317.88 517.71,319.37C518.23,319.53 518.77,319.63 519.31,319.66C520.7,319.73 521.62,319.83 522.08,319.98C533.56,323.57 541.45,325.92 545.74,327.01C554.24,329.17 559.55,331.07 566.53,333.27C567.2,333.48 569.54,334.27 573.57,335.65C584.49,339.39 598.28,342.85 607.8,345.84C619.73,349.58 630.48,352.95 640.04,355.94C643.65,357.07 647.07,357.6 649.98,358.8C654.33,360.59 659.79,361.28 664.52,363.05C669.23,364.82 672.47,365.91 674.22,366.33C685.95,369.13 692.57,370.75 694.07,371.18C704.76,374.27 715.54,377.4 726.41,380.59C734.81,383.06 742.8,385.77 750.38,388.72C761.99,393.25 768.56,395.29 781.49,399.26C804.3,406.27 817.78,410.37 821.92,411.58C825.89,412.74 833.42,415.8 839.03,417.33C857.04,422.24 874.2,427.79 890.51,433.98C895.68,435.94 900.19,437.54 904.02,438.79C913.81,441.96 922.01,444.79 930.35,447.81C935.02,449.5 940.53,451.21 946.88,452.93C948.23,453.29 949.54,453.85 950.81,454.6C951.25,454.86 951.56,455.28 951.69,455.76C952.94,460.41 953.58,462.9 953.6,463.24C953.89,468.21 954.24,472.33 954.64,475.6C955.21,480.27 955.48,484.38 955.45,487.95C955.36,496.84 954.95,505.19 954.21,513C953.98,515.41 953.49,517.93 952.72,520.58C952.63,520.9 952.4,521.15 952.09,521.28C950.76,521.8 949.48,522.11 948.25,522.22C944.31,522.55 936.81,523.05 930.87,524.11C926.28,524.93 921.87,525.29 917.64,525.2C914.19,525.12 910.61,525.33 906.89,525.83C898.32,526.99 891.22,528 885.59,528.87C881.64,529.48 878.28,529.48 874.46,530.01C872.93,530.22 871.45,530.33 870.02,530.34C853.36,530.47 842.3,530.29 828.85,533.36C821.75,534.99 817,535.95 814.59,536.24C802.28,537.75 791.14,538.62 781.17,538.86C775,539.01 770.39,539.24 767.34,539.55C760.57,540.23 755.97,540.61 753.52,540.69C747.94,540.86 743.02,542.29 737,543.09C734.86,543.37 732.67,543.77 730.42,544.3C727.97,544.87 722.02,546 712.56,547.71C708.33,548.48 704.58,548.92 701.3,549.05C696.85,549.22 691.8,550.03 686.22,549.9C668.49,549.51 651.46,552.06 635.02,556.63C629.35,558.21 625.09,559.2 622.24,559.61C616.91,560.38 612.56,561 609.19,561.47C607.84,561.66 601.7,561.95 590.77,562.36C583.88,562.61 577.45,563.23 571.5,564.2C563.79,565.45 555.63,567.99 547.04,571.8Z" style="fill:rgb(30,44,54);fill-rule:nonzero;"/>
                <path d="M949.78,446.29C949.57,446.83 948.98,447.1 948.44,446.92C940.73,444.3 933.42,442.02 926.49,440.08C920.84,438.49 916.19,436.97 912.54,435.52C905.56,432.75 900.55,431.5 894.15,428.72C892.24,427.89 888.72,426.53 883.61,424.66C880.95,423.69 876.51,421.87 870.3,419.2C858.98,414.36 850.5,411.58 835.87,407.13C832.32,406.05 828.64,404.24 825.46,403.29C816.93,400.73 808.64,398.41 800.59,396.32C796.9,395.36 794.16,394.26 789.83,393.41C788.98,393.24 784.16,391.94 775.38,389.53C770.93,388.3 766.19,386.7 761.17,384.74C751.63,381.01 746.12,378.8 744.63,378.11C739.64,375.79 735.09,373.94 730.99,372.55C720.66,369.07 711.14,366.15 702.41,363.78C699.22,362.91 696.62,362.27 694.62,361.84C690.79,361.02 688.19,360.42 686.82,360.04C680.58,358.31 676.55,357.24 674.73,356.82C669.55,355.63 665.53,354.55 662.67,353.58C661.22,353.08 652.27,350.33 635.82,345.34C632.93,344.46 630.41,343.77 628.24,343.26C622.41,341.9 616.26,339.15 611.33,337.62C607.12,336.33 605.02,335.68 605.01,335.67C602.39,334.73 600.27,334.12 598.65,333.83C595.03,333.2 590.73,331.9 585.74,329.92C583.19,328.91 579.63,328.75 577.57,327.91C576.3,327.4 573.37,326.57 568.76,325.4C556.16,322.21 544.52,318.78 534.69,316.41C530.91,315.5 527.38,314.57 524.11,313.61C516.38,311.35 510.14,310.44 501.71,308.86C498.57,308.27 495.82,307.61 493.45,306.86C488.45,305.27 484.38,304.53 480.22,303.4C477.02,302.54 474.48,301.49 471.55,301.18C469.86,301 468.44,300.73 467.29,300.36C465.06,299.65 461.7,298.72 457.19,297.57C455.65,297.18 454.02,297.2 452.31,297.64C445.86,299.29 440.89,300.96 437.39,302.67C429.32,306.6 425.24,308.59 425.14,308.64C421.29,310.45 411.34,314.72 395.29,321.47C393.88,322.06 392.67,323.71 391.66,326.42C391.03,328.11 390.03,331.77 388.64,337.41C387.79,340.84 387.33,344.61 387.28,348.71C387.14,359 387.23,367.13 387.54,373.09C387.99,381.57 387.17,390.95 387.73,398.36C387.9,400.73 387.9,404 387.73,408.17C387.45,414.72 387.77,422.37 388.51,429.5C388.96,433.77 389.16,437.53 389.12,440.76C389.08,444.2 385.61,444.87 382.74,444.97C378.86,445.12 373.76,445.15 369.07,444.71C360,443.88 350.39,444.07 340.26,445.3C337.08,445.68 332.15,444.98 328.24,445.4C322.99,445.98 315.77,446.3 306.59,446.37C306.24,446.38 305.91,446.23 305.68,445.97C303.45,443.43 304.97,434.76 305.73,431.23C306.93,425.65 307.56,420.76 309.17,416.01C309.94,413.73 309.7,411.6 310.35,409.34C310.66,408.25 311.18,405.06 311.91,399.78C314.23,383.03 319.58,367.04 327.95,351.82C332.02,344.42 334.1,340.62 334.21,340.42C343.92,322.09 348.94,312.64 357.92,298.52C358.99,296.84 360.63,294.57 362.86,291.72C364.45,289.69 365.96,287.34 367.41,284.67C368.92,281.89 371.72,279.57 373.4,277.3C378.72,270.11 381.77,266.02 382.55,265.05C387.12,259.34 391.86,253.91 396.76,248.76C400.6,244.72 406.04,240.02 413.08,234.65C421.27,228.4 427.68,223.8 432.31,220.83C433.51,220.06 437.81,217.43 445.21,212.94C452.53,208.5 459.73,205.15 466.82,202.89C472.92,200.94 479.33,198.52 486.05,195.63C493.96,192.21 499.62,189.9 503.03,188.7C506.5,187.48 512.23,185.32 520.2,182.23C524.59,180.53 531.99,178.12 542.41,174.99C549.44,172.88 558.28,171.02 568.93,169.41C576.26,168.31 582.62,166.77 589.36,165.28C592.17,164.67 596.27,164.09 601.64,163.55C619.63,161.75 637.4,161.23 654.97,163.64C658.82,164.17 663.59,165.23 669.29,166.82C676.57,168.85 681.48,169.42 689.89,170.48C697.52,171.44 704,172.83 709.34,174.73C713.39,176.18 716.34,177.06 718.21,177.39C718.87,177.5 719.5,177.72 720.08,178.02L723.47,179.78C724.29,180.21 725.18,180.51 726.1,180.68C727.75,180.99 728.86,181.24 729.45,181.41C735.1,183.06 737.98,185.63 743.07,186.97C746.7,187.92 751.15,189.48 756.41,191.64C757.87,192.25 759.39,192.71 760.94,193.04C762.44,193.35 763.45,193.51 764.68,193.94C772.76,196.75 777.18,198.29 777.93,198.57C787.98,202.28 797.7,206.9 807.07,212.42C811.09,214.79 814.28,216.93 816.63,218.86C821.72,223.03 829.87,227.17 834.43,230.41C841.77,235.64 847.13,240.07 854.04,246.19C859.75,251.25 864.86,257.81 869.46,262.24C873.45,266.08 877.9,271.57 881.73,276.11C884.12,278.94 885.83,281.16 886.88,282.77C888.89,285.88 891.47,288.27 893.76,291.7C898.82,299.26 903.19,306.21 906.88,312.54C911.67,320.77 915.71,327.95 918.99,334.08C923.46,342.42 927.5,351.44 931.13,361.13C934.82,371 937.54,379.36 939.29,386.22C942.06,397.09 943.2,408.77 946.44,420.39C948.09,426.29 949.34,433.5 950.2,442.01C950.37,443.72 950.23,445.15 949.78,446.29Z" style="fill:rgb(140,175,194);fill-rule:nonzero;"/>
                <path d="M464.7,586.65C465.42,587.45 466.75,587.12 468.7,585.67C470.67,586.39 472.7,586.54 474.8,586.13C481.97,584.71 494.67,582.37 512.88,579.1C515.83,578.57 518.46,577.33 521.33,576.89C530.38,575.52 538.95,573.83 547.04,571.8C557.11,571.91 566.88,571.72 576.37,571.23C578.6,571.12 580.56,570.93 582.24,570.66C582.82,570.56 583.42,570.54 584,570.59C590.7,571.14 595.96,572.01 599.79,573.2C600.84,573.53 601.42,574.25 601.54,575.38C601.58,575.73 601.45,576.08 601.19,576.32C599.75,577.63 598.39,578.49 597.11,578.91C590,581.24 582.76,582.96 575.37,584.08C564.8,585.67 558.47,586.7 556.37,587.15C543.14,589.98 530.54,594.31 518.57,600.12C511.78,603.41 507.2,605.82 504.81,607.33C501.32,609.53 497.17,612.81 494.58,615.8C491.77,619.05 488.49,621.93 487.2,624.46C484.88,629.05 483.63,632.98 483.45,636.27C483.4,637.17 483.86,640.25 484.82,645.5C484.94,646.14 485.17,646.76 485.49,647.33C489.1,653.6 492.89,658.47 496.85,661.92C502.95,667.23 509.62,672.23 516.86,676.9C523.35,681.1 530.72,683.49 537.62,686.48C541.37,688.1 545.61,689.32 549,690.26C557.83,692.7 568.5,695.36 581.02,698.24C585.92,699.37 590.23,701.47 594.47,702.93C604.84,706.49 615.15,711.5 622.44,719.64C623.89,721.26 625.03,723.86 625.86,727.44C626.78,731.48 624.24,737.63 623.99,741.48C623.52,749.04 625.18,756.32 630.24,761.98C632.81,764.85 634.06,767.04 637.07,769.54C641.88,773.55 647.05,777.17 652.59,780.42C655.64,782.21 663.14,786.77 668.15,788.78C671.46,790.11 673.89,791.98 677.54,793.36C678.97,793.9 682.74,795.54 688.83,798.28C689.92,798.77 691.06,799.19 692.27,799.55C701.6,802.33 710.61,804.89 718.56,807.44C720.5,808.05 727.1,809.84 738.37,812.81C738.43,812.83 738.48,812.87 738.52,812.92C738.59,813.03 738.63,813.11 738.64,813.18C738.69,813.53 738.57,813.78 738.3,813.93C737.15,814.55 735.56,815.24 733.53,816.01C723.6,819.74 712.27,822.97 699.55,825.69C684.42,828.92 670.2,830.95 656.9,831.77C653.27,831.99 650.34,832.21 648.09,832.43C633.28,833.88 617.94,833.16 602.32,831.71C597.97,831.31 592.12,830.5 584.76,829.29C580.49,828.59 574.65,827.65 567.23,826.48C556.31,824.75 546.54,822.4 537.91,819.44C535.59,818.64 532.87,817.88 529.75,817.16C527.6,816.66 524.9,815.81 521.64,814.6C509.38,810.05 498.24,805.02 486.13,798.36C482.22,796.21 474.69,792.07 463.55,785.92C460.12,784.03 457.32,781.65 453.81,779.77C450.23,777.84 446.57,775.39 442.83,772.42C441.32,771.22 438.16,770.1 435.97,768.67C427.98,763.46 421.07,758.48 415.23,753.75C410.83,750.18 405.81,745.76 400.18,740.49C395.55,736.16 390.92,731.34 386.29,726.05C379.13,717.87 370.9,707.9 361.6,696.14C360.45,694.69 359.17,692.55 357.85,690.86C352.51,684.01 347.89,677.03 344,669.9C341.09,664.57 339.2,661.16 338.32,659.67C336.28,656.25 331.89,649.01 329.56,643.91C327.33,639.04 324.53,632.68 321.16,624.81C318.9,619.55 317.15,614.79 315.9,610.52C313.7,603.01 310.95,596.28 309.45,589.05C309.41,588.83 308.8,586.54 307.63,582.19C306.66,578.59 306.74,575.02 305.84,571.32C304.94,567.58 303.97,562.91 302.92,557.31C302.52,555.18 302.15,551.25 301.82,545.5C301.69,543.27 301.74,541.37 301.95,539.78C301.99,539.46 302.13,539.16 302.34,538.92L303.59,537.48C305.99,537.79 308.45,538.06 310.98,538.27C313.73,538.5 316.18,538.85 318.33,539.34C320.38,539.8 322.45,540.03 324.53,540.02C325.49,540.02 326.44,540.16 327.36,540.43C331.01,541.53 335.16,542.16 339.83,542.31C340.05,542.32 340.27,542.34 340.49,542.38L373.89,548.82C373.94,548.83 374,548.85 374.06,548.86L387.1,552.54C388.08,552.81 389.04,553.18 389.95,553.65C396.16,556.76 404.73,560.1 412.65,563.92C419.04,567 425.52,570.03 432.11,573C434.76,574.2 436.21,574.85 436.48,574.95C439.99,576.32 444.11,578.39 448.82,581.17C449.68,581.68 450.57,582.12 451.49,582.5C454.49,583.75 457.32,585.1 459.97,586.55C461.02,587.12 462.59,587.16 464.7,586.65Z" style="fill:rgb(222,195,151);fill-rule:nonzero;"/>
                <path d="M828.41,765.43C828.2,766.03 827.73,766.64 827.01,767.27C816.56,776.29 805.62,784.05 794.19,790.56C786.27,795.08 777.64,798.56 769.01,802.02C768.21,802.34 767.23,802.57 766.06,802.7C765.71,802.74 765.36,802.69 765.03,802.57C760.06,800.66 753.44,799.8 748.29,797.69C745.01,796.36 741.41,796.58 737.94,795.64C736.18,795.17 732.13,794.19 725.8,792.71C722.02,791.83 717.94,790.42 713.56,788.49C710.97,787.34 706.46,785.68 700.05,783.49C698.03,782.8 693.24,780.18 685.69,775.65C684.15,774.72 681.74,773.9 678.45,773.17C676.13,772.66 672.85,771.14 668.61,768.61C663.4,765.5 658.57,761.92 654.13,757.86C650.17,754.24 647.32,749.71 645.58,744.26C645.05,742.58 644.89,740.39 645.11,737.68C645.16,736.98 645.33,736.3 645.61,735.65C645.78,735.24 646.86,732.72 648.85,728.08C649.08,727.55 649.19,725.73 649.2,722.63C649.2,720.66 648.9,718.89 648.31,717.32C645.28,709.35 638.57,705.44 630.9,700.66C624.47,696.65 617.28,693.49 609.35,691.19C603.2,689.4 599.43,687.82 594.33,687.13C591.13,686.69 587.95,685.2 584.77,684.47C570.6,681.22 556.91,676.73 543.71,671C541.04,669.84 538.08,668.11 534.83,665.81C533,664.52 529.73,663.87 528.65,662.84C525.23,659.57 522.12,656.86 519.31,654.69C518.28,653.89 516.32,651.35 513.45,647.08C512.76,645.84 512.23,644.51 511.86,643.14L510.51,638.12C510.42,637.77 510.41,637.41 510.48,637.06C511.44,632.42 513.05,628.49 515.31,625.27C516.93,622.96 520.08,620.17 524.76,616.9C531.63,612.1 538.87,606.97 546.9,604.16C552.68,602.13 557.17,600.53 560.37,599.37C563.42,598.26 566.48,598.22 569.46,596.94C572.86,595.46 577.77,595.72 580.54,595.02C586.31,593.57 591.96,593.11 598.29,591.59C607.6,589.36 616.89,587.1 624.8,582.12C628.1,580.04 630.06,577.15 630.69,573.44C630.82,572.66 631.32,571.99 632.02,571.63C637.02,569.1 642.57,566.8 648.68,564.73C655.44,562.44 663.1,561.9 672,561.08C675.21,560.79 678.54,560.72 682,560.87C694.43,561.42 701.75,561.69 703.95,561.68C704.02,561.68 704.09,561.67 704.16,561.65L710.33,559.91C710.75,559.8 711.17,559.71 711.6,559.66C717.51,558.95 721.42,558.23 723.31,557.51C727.27,555.98 731.43,553.73 735.65,552.56C737.42,552.07 738.77,551.72 739.7,551.51C752.24,548.68 765.01,547.31 778.01,547.4C792.74,547.5 803.78,547.15 811.11,546.35C813.37,546.11 816.7,545.38 819.67,544.45C827.24,542.07 835.8,540.12 845.36,538.59C859.32,536.36 874.04,538.78 887.44,536.3C889.79,535.87 892.96,535.02 896.95,533.75C900.81,532.52 905.08,531.79 909.75,531.56C919.32,531.09 927.7,530.98 934.89,531.23C935.05,531.24 935.21,531.22 935.37,531.19L937.51,530.78C937.94,530.7 938.38,530.72 938.8,530.83C941.79,531.66 945.01,531.81 948.47,531.28C948.97,531.21 950.23,531.45 952.25,532.01C952.59,532.11 952.86,532.34 953.01,532.66C953.46,533.67 953.55,535.02 953.26,536.69C953.16,537.3 952.6,537.74 951.98,537.68C946.37,537.14 943.04,537.51 937.31,539.77C928.99,543.07 919.97,541.08 911.29,542.36C907.26,542.95 903.8,543.71 900.89,544.62C899.4,545.08 895.8,547.11 890.07,550.71C889.72,550.94 889.34,551.11 888.94,551.23C882.6,553.24 876.36,554.43 870.21,554.79C862.84,555.22 852.65,553.93 844.48,555.88C836.43,557.79 828.51,560.04 822.63,565.25C822.27,565.57 821.85,565.83 821.39,566.01C815.66,568.26 809.96,569.69 804.27,570.29C799.02,570.85 794.63,571.23 791.1,571.44C787.19,571.67 782.84,572.32 778.05,573.39C767.53,575.74 757.7,579.65 750.97,588.25C750.42,588.95 749.77,589.55 749.03,590.03C743.64,593.54 739.15,595.73 735.56,596.6C722.55,599.76 709.78,601.47 697.25,601.74C684.34,602.01 675.83,602.4 671.74,602.91C660.95,604.24 651.92,606.19 644.66,608.76C635.11,612.13 629.54,614.04 627.95,614.49C624.29,615.53 621.24,617.3 617.18,618.73C616.73,618.89 616.31,619.09 615.91,619.34C609.81,623.08 604.59,626.5 602.3,633.37C599.82,640.81 606.28,647.55 612.46,650.69C616.23,652.61 619.39,657.32 621.85,658.53C631.82,663.47 640.85,666.74 648.93,668.35C655.37,669.63 662.27,670.85 669.62,672.02C677.78,673.31 684.18,674.73 688.81,676.26C695.08,678.34 701.2,680.72 707.16,683.39C710.74,684.99 713.75,686.67 716.18,688.44C721.68,692.43 725.7,695.63 726.67,702.51C726.73,702.9 726.52,704.7 726.04,707.9C724.88,715.6 730.48,719.99 736.12,724.79C740.37,728.4 745.01,730.53 749.86,733.51C751.53,734.54 753.7,735.56 756.36,736.58C762.29,738.85 767.49,740.4 771.98,741.24C785.27,743.73 796.54,747.19 805.78,751.6C806.77,752.07 807.72,752.63 808.61,753.27C813.54,756.82 818.46,759.94 823.37,762.64C824.7,763.37 826.23,764.01 827.96,764.54C828.34,764.65 828.54,765.06 828.41,765.43Z" style="fill:rgb(78,134,159);fill-rule:nonzero;"/>
                <path d="M892.84,695.62C893.38,695.81 893.61,696.45 893.3,696.93C887.89,705.39 880.88,715.29 873.51,723.43C863.46,734.54 852.64,745.03 841.06,754.9C840.65,755.24 840.1,755.36 839.59,755.2C835.72,754.02 832.21,752.4 829.04,750.35C828.59,750.06 828.19,749.71 827.82,749.32C820.74,741.72 812.19,738.72 801.5,734.73C797.95,733.4 793.59,732.09 788.42,730.8C783.83,729.65 776.61,727.62 766.74,724.72C761.67,723.23 756.66,720.78 751.71,717.39C747.17,714.28 741.38,710.83 742.24,704.51C743.02,698.78 744.42,694.23 740.56,689.18C735.64,682.74 729.57,677.98 722.36,674.89C720.79,674.22 716.37,672.45 709.09,669.56C705.76,668.23 703.13,667.33 701.22,666.85C697.71,665.96 694.74,664.65 690.52,664.05C685.93,663.4 681.86,662.2 676.88,661.3C665.65,659.28 658.49,657.81 655.4,656.89C654.08,656.5 651.27,655.6 646.97,654.19C642.39,652.68 639.63,651.68 638.69,651.17C631.56,647.32 628.42,646.03 624.07,641.74C614.62,632.42 633.87,624.19 640.2,622.29C646.85,620.29 651.13,619.05 653.04,618.56C668.59,614.63 682.66,613.34 698.01,613.78C702.5,613.91 707.66,613.65 713.47,613C728.01,611.37 742.41,608.29 755.15,601.43C757.03,600.42 758.88,598.86 760.71,596.75C761.05,596.36 761.29,595.88 761.4,595.37C762.4,590.51 768.26,588.14 772.7,586.25C780.74,582.82 789.13,581.16 797.87,581.29C798.87,581.3 800.32,581.24 802.22,581.1C805.24,580.88 808.47,579.92 811.14,579.84C816.64,579.67 822.75,577.16 827.63,574.63C827.87,574.5 828.09,574.35 828.29,574.17L832.36,570.41C832.83,569.98 833.33,569.61 833.87,569.29C842.1,564.52 852.36,562.64 862.01,563.28C873.85,564.08 886.58,563.87 896.96,557.31C897.29,557.1 897.59,556.84 897.84,556.55C899.5,554.62 900.57,553.54 901.06,553.29C906.4,550.63 912.76,548.34 918.65,548.71C923.82,549.04 928.58,549.02 934.13,547.34C937.26,546.39 941.52,544.92 946.89,542.91C948.37,542.36 950.03,541.96 951.86,541.73C952.24,541.69 952.58,541.96 952.61,542.34C952.93,546.24 952.83,550.24 952.32,554.35C951.25,562.93 949.61,571.87 947.4,581.18C947.04,582.67 946.7,583.67 946.38,584.18C946.14,584.55 945.7,584.74 945.26,584.67L941.73,584.04C940.55,583.83 939.33,583.95 938.21,584.38C935.13,585.55 931.51,586.87 927.34,588.32C918.34,591.45 907.95,591.97 898.79,591.76C895.84,591.69 891.61,592.33 886.08,593.67C879.35,595.3 873.24,597.27 867.75,599.57C863.64,601.3 860.18,603.98 857.37,607.63C856.06,609.33 854.91,611.03 852.78,612.32C848.63,614.84 845.43,616.38 843.17,616.93C834.12,619.13 827.35,621.19 819.98,621.88C807.91,623.02 797.19,625.44 786.68,629.48C784.57,630.29 781.25,632.19 776.72,635.19C770.45,639.34 767.42,648.2 774.94,653.08C780.18,656.48 786.9,660.5 789.4,666.09C789.62,666.6 789.96,667.05 790.38,667.41C794.16,670.69 798.26,673.16 802.68,674.81C816.42,679.93 831.36,681.88 846.19,682.6C848.24,682.7 852.33,683.44 858.48,684.82C860.97,685.38 865.87,687.1 873.17,689.99C876.74,691.4 879.97,692.46 882.88,693.17C889.42,694.77 892.74,695.59 892.84,695.62Z" style="fill:rgb(78,134,159);fill-rule:nonzero;"/>
                <path d="M944.09,592.29C944.07,592.8 943.92,593.5 943.65,594.39C942.96,596.62 942.07,599.73 940.96,603.72C938.7,611.91 935.46,619.34 932.29,627.02C931.26,629.51 930.45,631.16 929.84,631.99C928.74,633.49 928.63,635.77 927.91,637.14C927.29,638.33 924.27,644.14 918.85,654.59C916.75,658.63 914.26,662.27 912.43,666.75C911.79,668.3 910.86,670.05 909.63,671.98C906.18,677.41 903.77,681.11 902.4,683.08C901.82,683.92 900.86,684.41 899.83,684.4C896.52,684.37 892.23,683.14 888.7,681.25C885.07,679.31 881.3,678.52 877.16,676.76C876.19,676.34 875.17,676.04 874.13,675.87C864.38,674.24 857.42,671.94 848.19,671.12C841.78,670.55 836.06,669.92 831.01,669.22C824.03,668.25 817.35,666.94 810.87,663.63C809.6,662.98 807.47,662.04 804.49,660.79C803.37,660.32 802.31,659.74 801.32,659.06C799.2,657.61 796.17,655.43 792.22,652.54C787.69,649.22 788.18,643.82 792.29,640.53C795.36,638.06 798.84,636.27 802.83,635C814.18,631.38 826.24,628.97 839,627.76C846.82,627.02 853.86,624.49 860.13,620.16C862.69,618.39 863.52,617.94 865.08,615.45C869.59,608.26 874.31,606.48 882.68,603.64C887.23,602.1 895.75,600.97 903.19,600.94C912,600.9 920.92,599.21 929.93,595.87C933.36,594.6 937.44,592.96 942.19,590.97C943.12,590.58 944.13,591.29 944.09,592.29Z" style="fill:rgb(78,134,159);fill-rule:nonzero;"/>
            </g>
            <g transform="matrix(1,0,0,1,-26,26.578018)">
                <g transform="matrix(72,0,0,72,452.712239,408.746472)">
                    <path d="M0.322,-0L0.133,-0L0.133,-0.128L0.315,-0.128C0.361,-0.128 0.401,-0.137 0.432,-0.153C0.464,-0.17 0.488,-0.196 0.504,-0.23C0.52,-0.265 0.528,-0.31 0.528,-0.364C0.528,-0.418 0.52,-0.463 0.504,-0.497C0.488,-0.532 0.464,-0.558 0.432,-0.574C0.401,-0.591 0.362,-0.599 0.315,-0.599L0.13,-0.599L0.13,-0.728L0.324,-0.728C0.397,-0.728 0.46,-0.713 0.513,-0.684C0.565,-0.655 0.605,-0.613 0.634,-0.559C0.662,-0.505 0.676,-0.44 0.676,-0.364C0.676,-0.289 0.662,-0.223 0.634,-0.169C0.606,-0.115 0.565,-0.073 0.512,-0.044C0.459,-0.015 0.395,-0 0.322,-0ZM0.215,-0.728L0.215,-0L0.066,-0L0.066,-0.728L0.215,-0.728Z" style="fill:rgb(30,44,54);fill-rule:nonzero;"/>
                </g>
                <g transform="matrix(72,0,0,72,504.711144,408.746472)">
                    <path d="M0.215,0.011C0.18,0.011 0.149,0.004 0.122,-0.008C0.094,-0.02 0.073,-0.038 0.057,-0.062C0.041,-0.087 0.033,-0.117 0.033,-0.153C0.033,-0.183 0.039,-0.209 0.05,-0.229C0.061,-0.249 0.076,-0.266 0.096,-0.278C0.115,-0.291 0.137,-0.3 0.162,-0.307C0.186,-0.313 0.212,-0.318 0.239,-0.32C0.271,-0.324 0.296,-0.327 0.316,-0.329C0.335,-0.332 0.349,-0.337 0.358,-0.343C0.367,-0.349 0.372,-0.357 0.372,-0.369L0.372,-0.372C0.372,-0.387 0.368,-0.4 0.362,-0.411C0.355,-0.422 0.345,-0.43 0.333,-0.436C0.32,-0.442 0.304,-0.444 0.286,-0.444C0.267,-0.444 0.251,-0.442 0.237,-0.436C0.223,-0.43 0.212,-0.423 0.203,-0.413C0.194,-0.404 0.187,-0.393 0.183,-0.381L0.049,-0.404C0.058,-0.435 0.074,-0.462 0.096,-0.484C0.117,-0.507 0.145,-0.524 0.177,-0.535C0.209,-0.547 0.246,-0.553 0.286,-0.553C0.316,-0.553 0.344,-0.549 0.372,-0.542C0.4,-0.535 0.424,-0.525 0.446,-0.51C0.468,-0.495 0.486,-0.476 0.499,-0.452C0.512,-0.429 0.518,-0.401 0.518,-0.368L0.518,-0L0.379,-0L0.379,-0.076L0.374,-0.076C0.366,-0.059 0.354,-0.044 0.339,-0.031C0.325,-0.018 0.307,-0.008 0.286,-0C0.266,0.007 0.242,0.011 0.215,0.011ZM0.256,-0.092C0.279,-0.092 0.3,-0.097 0.317,-0.106C0.334,-0.115 0.348,-0.127 0.358,-0.143C0.368,-0.159 0.373,-0.176 0.373,-0.195L0.373,-0.254C0.368,-0.251 0.362,-0.248 0.353,-0.246C0.344,-0.243 0.335,-0.241 0.324,-0.239C0.313,-0.237 0.303,-0.235 0.292,-0.233C0.282,-0.232 0.272,-0.23 0.264,-0.229C0.246,-0.227 0.23,-0.223 0.217,-0.217C0.203,-0.211 0.193,-0.203 0.185,-0.194C0.177,-0.184 0.174,-0.172 0.174,-0.157C0.174,-0.143 0.177,-0.131 0.184,-0.121C0.192,-0.112 0.201,-0.104 0.214,-0.099C0.226,-0.095 0.24,-0.092 0.256,-0.092Z" style="fill:rgb(30,44,54);fill-rule:nonzero;"/>
                </g>
                <g transform="matrix(72,0,0,72,546.50765,408.746472)">
                    <path d="M0.062,-0L0.062,-0.546L0.198,-0.546L0.206,-0.41L0.195,-0.41C0.203,-0.444 0.216,-0.471 0.232,-0.492C0.249,-0.513 0.268,-0.529 0.29,-0.539C0.312,-0.549 0.336,-0.554 0.36,-0.554C0.399,-0.554 0.431,-0.542 0.455,-0.517C0.479,-0.492 0.497,-0.453 0.508,-0.401L0.491,-0.401C0.499,-0.436 0.513,-0.465 0.531,-0.488C0.55,-0.51 0.571,-0.527 0.596,-0.538C0.622,-0.549 0.648,-0.554 0.676,-0.554C0.709,-0.554 0.739,-0.547 0.765,-0.532C0.792,-0.518 0.812,-0.497 0.827,-0.469C0.842,-0.441 0.85,-0.408 0.85,-0.368L0.85,-0L0.704,-0L0.704,-0.34C0.704,-0.371 0.695,-0.394 0.679,-0.409C0.662,-0.424 0.641,-0.432 0.617,-0.432C0.598,-0.432 0.583,-0.428 0.569,-0.42C0.555,-0.412 0.545,-0.4 0.538,-0.386C0.531,-0.372 0.527,-0.355 0.527,-0.336L0.527,-0L0.385,-0L0.385,-0.344C0.385,-0.371 0.377,-0.392 0.362,-0.408C0.346,-0.424 0.325,-0.432 0.3,-0.432C0.283,-0.432 0.268,-0.428 0.254,-0.42C0.24,-0.412 0.229,-0.401 0.221,-0.386C0.213,-0.37 0.209,-0.352 0.209,-0.33L0.209,-0L0.062,-0Z" style="fill:rgb(30,44,54);fill-rule:nonzero;"/>
                </g>
                <g transform="matrix(72,0,0,72,612.1977,408.746472)">
                </g>
                <g transform="matrix(72,0,0,72,629.258455,408.746472)">
                    <path d="M0.176,-0.165L0.176,-0.3C0.191,-0.327 0.205,-0.352 0.22,-0.375C0.234,-0.398 0.25,-0.421 0.267,-0.444C0.284,-0.466 0.304,-0.491 0.326,-0.519L0.504,-0.728L0.687,-0.728L0.379,-0.372L0.367,-0.377L0.176,-0.165ZM0.066,-0L0.066,-0.728L0.215,-0.728L0.215,-0.529L0.212,-0.343L0.215,-0.271L0.215,-0L0.066,-0ZM0.518,-0L0.302,-0.328L0.396,-0.439L0.694,-0L0.518,-0Z" style="fill:rgb(30,44,54);fill-rule:nonzero;"/>
                </g>
                <g transform="matrix(72,0,0,72,681.558863,408.746472)">
                    <path d="M0.062,-0L0.062,-0.546L0.209,-0.546L0.209,-0L0.062,-0ZM0.136,-0.617C0.114,-0.617 0.095,-0.625 0.079,-0.639C0.063,-0.654 0.056,-0.672 0.056,-0.692C0.056,-0.713 0.063,-0.731 0.079,-0.746C0.095,-0.76 0.114,-0.768 0.136,-0.768C0.158,-0.768 0.177,-0.76 0.193,-0.746C0.208,-0.731 0.216,-0.714 0.216,-0.692C0.216,-0.672 0.208,-0.654 0.193,-0.639C0.177,-0.625 0.158,-0.617 0.136,-0.617Z" style="fill:rgb(30,44,54);fill-rule:nonzero;"/>
                </g>
                <g transform="matrix(72,0,0,72,701.08456,408.746472)">
                    <path d="M0.209,-0.316L0.209,-0L0.062,-0L0.062,-0.546L0.201,-0.546L0.203,-0.41L0.194,-0.41C0.209,-0.455 0.23,-0.49 0.259,-0.515C0.289,-0.54 0.326,-0.553 0.372,-0.553C0.41,-0.553 0.443,-0.545 0.471,-0.528C0.499,-0.512 0.521,-0.488 0.537,-0.457C0.552,-0.427 0.56,-0.39 0.56,-0.347L0.56,-0L0.414,-0L0.414,-0.322C0.414,-0.356 0.405,-0.382 0.387,-0.401C0.37,-0.421 0.346,-0.43 0.315,-0.43C0.294,-0.43 0.276,-0.426 0.26,-0.417C0.244,-0.408 0.231,-0.395 0.222,-0.378C0.213,-0.361 0.209,-0.34 0.209,-0.316Z" style="fill:rgb(30,44,54);fill-rule:nonzero;"/>
                </g>
                <g transform="matrix(72,0,0,72,745.901655,408.746472)">
                    <path d="M0.305,0.216C0.259,0.216 0.22,0.21 0.186,0.199C0.152,0.187 0.125,0.171 0.104,0.151C0.082,0.131 0.068,0.108 0.06,0.082L0.186,0.047C0.19,0.057 0.197,0.067 0.207,0.077C0.216,0.086 0.229,0.094 0.245,0.1C0.261,0.106 0.281,0.109 0.304,0.109C0.342,0.109 0.371,0.101 0.392,0.084C0.414,0.067 0.425,0.04 0.425,0.004L0.425,-0.097L0.413,-0.097C0.407,-0.082 0.397,-0.068 0.385,-0.054C0.372,-0.041 0.356,-0.03 0.336,-0.021C0.316,-0.012 0.291,-0.008 0.262,-0.008C0.221,-0.008 0.183,-0.017 0.15,-0.037C0.116,-0.056 0.09,-0.085 0.07,-0.125C0.05,-0.164 0.04,-0.214 0.04,-0.274C0.04,-0.335 0.05,-0.387 0.07,-0.428C0.09,-0.47 0.117,-0.501 0.151,-0.521C0.185,-0.542 0.222,-0.553 0.262,-0.553C0.293,-0.553 0.319,-0.548 0.339,-0.537C0.36,-0.527 0.377,-0.514 0.39,-0.499C0.403,-0.483 0.412,-0.469 0.419,-0.454L0.425,-0.454L0.425,-0.546L0.569,-0.546L0.569,-0.005C0.569,0.045 0.558,0.086 0.535,0.118C0.513,0.151 0.482,0.175 0.442,0.192C0.402,0.208 0.356,0.216 0.305,0.216ZM0.308,-0.119C0.333,-0.119 0.354,-0.125 0.371,-0.138C0.389,-0.15 0.402,-0.168 0.411,-0.191C0.42,-0.214 0.425,-0.242 0.425,-0.275C0.425,-0.307 0.42,-0.335 0.411,-0.359C0.402,-0.383 0.389,-0.402 0.372,-0.415C0.354,-0.429 0.333,-0.435 0.308,-0.435C0.282,-0.435 0.26,-0.428 0.243,-0.415C0.225,-0.401 0.212,-0.382 0.203,-0.358C0.194,-0.334 0.19,-0.306 0.19,-0.275C0.19,-0.243 0.194,-0.216 0.203,-0.192C0.212,-0.169 0.226,-0.151 0.243,-0.138C0.261,-0.125 0.282,-0.119 0.308,-0.119Z" style="fill:rgb(30,44,54);fill-rule:nonzero;"/>
                </g>
                <g transform="matrix(72,0,0,72,791.386757,408.746472)">
                    <path d="M0.279,0.011C0.235,0.011 0.196,0.004 0.163,-0.008C0.129,-0.021 0.101,-0.039 0.08,-0.063C0.058,-0.087 0.044,-0.115 0.038,-0.149L0.174,-0.173C0.182,-0.147 0.194,-0.128 0.212,-0.116C0.23,-0.103 0.254,-0.097 0.284,-0.097C0.311,-0.097 0.334,-0.102 0.35,-0.113C0.366,-0.123 0.374,-0.137 0.374,-0.153C0.374,-0.167 0.368,-0.179 0.357,-0.188C0.345,-0.197 0.328,-0.204 0.303,-0.209L0.209,-0.229C0.157,-0.239 0.118,-0.258 0.091,-0.284C0.065,-0.309 0.052,-0.343 0.052,-0.384C0.052,-0.418 0.062,-0.449 0.081,-0.474C0.1,-0.499 0.127,-0.519 0.161,-0.532C0.195,-0.546 0.236,-0.553 0.282,-0.553C0.325,-0.553 0.362,-0.547 0.394,-0.535C0.425,-0.523 0.451,-0.506 0.47,-0.484C0.49,-0.463 0.503,-0.437 0.509,-0.407L0.379,-0.384C0.374,-0.403 0.363,-0.418 0.347,-0.43C0.332,-0.442 0.31,-0.448 0.284,-0.448C0.26,-0.448 0.24,-0.443 0.223,-0.432C0.207,-0.422 0.199,-0.409 0.199,-0.392C0.199,-0.379 0.204,-0.367 0.215,-0.358C0.225,-0.348 0.243,-0.341 0.269,-0.335L0.367,-0.316C0.42,-0.305 0.459,-0.288 0.485,-0.263C0.511,-0.239 0.524,-0.207 0.524,-0.168C0.524,-0.133 0.513,-0.101 0.492,-0.074C0.471,-0.048 0.443,-0.027 0.406,-0.012C0.369,0.003 0.327,0.011 0.279,0.011Z" style="fill:rgb(30,44,54);fill-rule:nonzero;"/>
                </g>
                <g transform="matrix(72,0,0,72,831.725646,408.746472)">
                </g>
                <g transform="matrix(72,0,0,72,452.712239,477.579806)">
                    <path d="M0.066,-0L0.066,-0.728L0.355,-0.728C0.408,-0.728 0.452,-0.719 0.488,-0.703C0.524,-0.687 0.55,-0.665 0.568,-0.637C0.586,-0.609 0.595,-0.577 0.595,-0.541C0.595,-0.512 0.589,-0.487 0.578,-0.466C0.566,-0.444 0.551,-0.427 0.531,-0.413C0.511,-0.4 0.489,-0.39 0.464,-0.384L0.464,-0.377C0.491,-0.376 0.517,-0.368 0.541,-0.354C0.565,-0.339 0.585,-0.319 0.6,-0.293C0.615,-0.267 0.623,-0.236 0.623,-0.2C0.623,-0.162 0.614,-0.128 0.595,-0.098C0.576,-0.067 0.548,-0.044 0.511,-0.026C0.474,-0.009 0.428,-0 0.373,-0L0.066,-0ZM0.215,-0.123L0.344,-0.123C0.387,-0.123 0.419,-0.131 0.439,-0.148C0.46,-0.165 0.47,-0.187 0.47,-0.215C0.47,-0.235 0.465,-0.253 0.455,-0.269C0.445,-0.285 0.431,-0.297 0.412,-0.307C0.394,-0.316 0.373,-0.32 0.347,-0.32L0.215,-0.32L0.215,-0.123ZM0.215,-0.422L0.332,-0.422C0.354,-0.422 0.373,-0.426 0.39,-0.433C0.406,-0.441 0.42,-0.452 0.429,-0.466C0.439,-0.48 0.444,-0.497 0.444,-0.517C0.444,-0.543 0.435,-0.565 0.416,-0.581C0.397,-0.598 0.37,-0.606 0.335,-0.606L0.215,-0.606L0.215,-0.422Z" style="fill:rgb(30,44,54);fill-rule:nonzero;"/>
                </g>
                <g transform="matrix(72,0,0,72,500.353155,477.579806)">
                    <path d="M0.309,0.011C0.254,0.011 0.206,-0.001 0.165,-0.024C0.125,-0.046 0.094,-0.079 0.072,-0.121C0.051,-0.163 0.04,-0.213 0.04,-0.27C0.04,-0.326 0.05,-0.376 0.072,-0.418C0.093,-0.46 0.124,-0.493 0.163,-0.517C0.203,-0.541 0.249,-0.553 0.302,-0.553C0.338,-0.553 0.371,-0.547 0.402,-0.536C0.433,-0.524 0.46,-0.507 0.483,-0.484C0.507,-0.461 0.525,-0.433 0.538,-0.398C0.551,-0.363 0.558,-0.323 0.558,-0.276L0.558,-0.235L0.1,-0.235L0.1,-0.327L0.487,-0.327L0.418,-0.302C0.418,-0.331 0.414,-0.355 0.405,-0.376C0.396,-0.397 0.384,-0.414 0.367,-0.425C0.349,-0.437 0.328,-0.442 0.303,-0.442C0.278,-0.442 0.256,-0.437 0.239,-0.425C0.221,-0.413 0.207,-0.397 0.198,-0.377C0.189,-0.357 0.184,-0.334 0.184,-0.309L0.184,-0.244C0.184,-0.212 0.19,-0.186 0.2,-0.164C0.211,-0.143 0.226,-0.127 0.245,-0.116C0.264,-0.105 0.286,-0.1 0.312,-0.1C0.329,-0.1 0.344,-0.102 0.358,-0.107C0.372,-0.112 0.384,-0.119 0.394,-0.129C0.404,-0.138 0.412,-0.15 0.417,-0.164L0.55,-0.139C0.541,-0.109 0.526,-0.083 0.504,-0.06C0.482,-0.038 0.455,-0.02 0.422,-0.008C0.389,0.004 0.352,0.011 0.309,0.011Z" style="fill:rgb(30,44,54);fill-rule:nonzero;"/>
                </g>
                <g transform="matrix(72,0,0,72,543.944055,477.579806)">
                    <path d="M0.215,0.011C0.18,0.011 0.149,0.004 0.122,-0.008C0.094,-0.02 0.073,-0.038 0.057,-0.062C0.041,-0.087 0.033,-0.117 0.033,-0.153C0.033,-0.183 0.039,-0.209 0.05,-0.229C0.061,-0.249 0.076,-0.266 0.096,-0.278C0.115,-0.291 0.137,-0.3 0.162,-0.307C0.186,-0.313 0.212,-0.318 0.239,-0.32C0.271,-0.324 0.296,-0.327 0.316,-0.329C0.335,-0.332 0.349,-0.337 0.358,-0.343C0.367,-0.349 0.372,-0.357 0.372,-0.369L0.372,-0.372C0.372,-0.387 0.368,-0.4 0.362,-0.411C0.355,-0.422 0.345,-0.43 0.333,-0.436C0.32,-0.442 0.304,-0.444 0.286,-0.444C0.267,-0.444 0.251,-0.442 0.237,-0.436C0.223,-0.43 0.212,-0.423 0.203,-0.413C0.194,-0.404 0.187,-0.393 0.183,-0.381L0.049,-0.404C0.058,-0.435 0.074,-0.462 0.096,-0.484C0.117,-0.507 0.145,-0.524 0.177,-0.535C0.209,-0.547 0.246,-0.553 0.286,-0.553C0.316,-0.553 0.344,-0.549 0.372,-0.542C0.4,-0.535 0.424,-0.525 0.446,-0.51C0.468,-0.495 0.486,-0.476 0.499,-0.452C0.512,-0.429 0.518,-0.401 0.518,-0.368L0.518,-0L0.379,-0L0.379,-0.076L0.374,-0.076C0.366,-0.059 0.354,-0.044 0.339,-0.031C0.325,-0.018 0.307,-0.008 0.286,-0C0.266,0.007 0.242,0.011 0.215,0.011ZM0.256,-0.092C0.279,-0.092 0.3,-0.097 0.317,-0.106C0.334,-0.115 0.348,-0.127 0.358,-0.143C0.368,-0.159 0.373,-0.176 0.373,-0.195L0.373,-0.254C0.368,-0.251 0.362,-0.248 0.353,-0.246C0.344,-0.243 0.335,-0.241 0.324,-0.239C0.313,-0.237 0.303,-0.235 0.292,-0.233C0.282,-0.232 0.272,-0.23 0.264,-0.229C0.246,-0.227 0.23,-0.223 0.217,-0.217C0.203,-0.211 0.193,-0.203 0.185,-0.194C0.177,-0.184 0.174,-0.172 0.174,-0.157C0.174,-0.143 0.177,-0.131 0.184,-0.121C0.192,-0.112 0.201,-0.104 0.214,-0.099C0.226,-0.095 0.24,-0.092 0.256,-0.092Z" style="fill:rgb(30,44,54);fill-rule:nonzero;"/>
                </g>
                <g transform="matrix(72,0,0,72,585.740562,477.579806)">
                    <path d="M0.306,0.011C0.252,0.011 0.204,-0.001 0.164,-0.025C0.125,-0.048 0.094,-0.081 0.072,-0.123C0.051,-0.165 0.04,-0.215 0.04,-0.271C0.04,-0.327 0.051,-0.376 0.072,-0.419C0.094,-0.461 0.125,-0.494 0.164,-0.517C0.204,-0.541 0.252,-0.553 0.306,-0.553C0.339,-0.553 0.369,-0.549 0.396,-0.54C0.423,-0.532 0.448,-0.52 0.469,-0.504C0.49,-0.488 0.507,-0.469 0.521,-0.447C0.535,-0.424 0.544,-0.399 0.549,-0.371L0.413,-0.346C0.41,-0.36 0.405,-0.373 0.399,-0.384C0.393,-0.395 0.386,-0.405 0.377,-0.413C0.368,-0.421 0.358,-0.427 0.346,-0.431C0.335,-0.435 0.322,-0.437 0.308,-0.437C0.282,-0.437 0.26,-0.43 0.242,-0.416C0.225,-0.402 0.211,-0.383 0.202,-0.358C0.193,-0.333 0.189,-0.304 0.189,-0.271C0.189,-0.239 0.193,-0.21 0.202,-0.185C0.211,-0.16 0.225,-0.14 0.242,-0.126C0.26,-0.112 0.282,-0.105 0.308,-0.105C0.322,-0.105 0.335,-0.107 0.347,-0.111C0.359,-0.115 0.369,-0.122 0.378,-0.13C0.387,-0.138 0.395,-0.148 0.401,-0.16C0.407,-0.172 0.411,-0.185 0.414,-0.2L0.55,-0.175C0.545,-0.146 0.536,-0.12 0.522,-0.097C0.508,-0.075 0.491,-0.055 0.47,-0.039C0.449,-0.023 0.424,-0.011 0.397,-0.002C0.369,0.006 0.339,0.011 0.306,0.011Z" style="fill:rgb(30,44,54);fill-rule:nonzero;"/>
                </g>
                <g transform="matrix(72,0,0,72,628.107309,477.579806)">
                    <path d="M0.209,-0.316L0.209,-0L0.062,-0L0.062,-0.728L0.206,-0.728L0.206,-0.41L0.194,-0.41C0.209,-0.455 0.23,-0.49 0.259,-0.515C0.289,-0.54 0.326,-0.553 0.372,-0.553C0.41,-0.553 0.443,-0.545 0.471,-0.528C0.5,-0.512 0.521,-0.488 0.537,-0.457C0.553,-0.427 0.56,-0.39 0.56,-0.347L0.56,-0L0.414,-0L0.414,-0.322C0.414,-0.356 0.405,-0.382 0.387,-0.401C0.37,-0.421 0.346,-0.43 0.315,-0.43C0.294,-0.43 0.276,-0.426 0.26,-0.417C0.244,-0.408 0.231,-0.395 0.222,-0.378C0.213,-0.361 0.209,-0.34 0.209,-0.316Z" style="fill:rgb(30,44,54);fill-rule:nonzero;"/>
                </g>
                <g transform="matrix(72,0,0,72,672.940576,477.579806)">
                </g>
            </g>
        </g>
    </g>
</svg>
